<svg id="Capa_1" data-name="Capa 1" xmlns="http://www.w3.org/2000/svg" viewBox="0 0 48.44 45.43"><defs><style>.cls-1{fill:#002152;}.cls-2{fill:#fff;}</style></defs><title>icono_red</title><path class="cls-1" d="M42.62,9.62a1,1,0,0,0-1.41.05L26.66,25.2a1,1,0,0,0-.48.08L12.47,9.69A1,1,0,1,0,11,11L24.13,26,5.78,30a1,1,0,0,0,.43,2L25,27.83V44.27a1,1,0,1,0,2,0V27.79L40,38.31a1,1,0,0,0,.62.22,1,1,0,0,0,.78-.37,1,1,0,0,0-.15-1.4L28.36,26.32,42.67,11a1,1,0,0,0-.05-1.41" transform="translate(-1.74 -3.1)"/><path class="cls-2" d="M26,34.28a7.69,7.69,0,1,1,7.69-7.69A7.7,7.7,0,0,1,26,34.28" transform="translate(-1.74 -3.1)"/><path class="cls-1" d="M26,19.9a6.69,6.69,0,1,1-6.69,6.69A6.7,6.7,0,0,1,26,19.9m0-2a8.69,8.69,0,1,0,8.69,8.69A8.69,8.69,0,0,0,26,17.9" transform="translate(-1.74 -3.1)"/><path class="cls-2" d="M42.94,16.6a6.25,6.25,0,1,1,6.24-6.25,6.26,6.26,0,0,1-6.24,6.25" transform="translate(-1.74 -3.1)"/><path class="cls-1" d="M42.94,5.1a5.25,5.25,0,1,1-5.25,5.25A5.25,5.25,0,0,1,42.94,5.1m0-2a7.25,7.25,0,1,0,7.24,7.25A7.25,7.25,0,0,0,42.94,3.1" transform="translate(-1.74 -3.1)"/><path class="cls-2" d="M41.66,41.53a4,4,0,1,1,4-4,4,4,0,0,1-4,4" transform="translate(-1.74 -3.1)"/><path class="cls-1" d="M41.66,34.54a3,3,0,1,1-3,3,3,3,0,0,1,3-3m0-2a5,5,0,1,0,5,5,5,5,0,0,0-5-5" transform="translate(-1.74 -3.1)"/><path class="cls-2" d="M11.72,14.34a4,4,0,1,1,4-4,4,4,0,0,1-4,4" transform="translate(-1.74 -3.1)"/><path class="cls-1" d="M11.72,7.36a3,3,0,1,1-3,3,3,3,0,0,1,3-3m0-2a5,5,0,1,0,5,5,5,5,0,0,0-5-5" transform="translate(-1.74 -3.1)"/><path class="cls-2" d="M6,34.25A3.26,3.26,0,1,1,9.26,31,3.26,3.26,0,0,1,6,34.25" transform="translate(-1.74 -3.1)"/><path class="cls-1" d="M6,28.73A2.26,2.26,0,1,1,3.74,31,2.26,2.26,0,0,1,6,28.73m0-2A4.26,4.26,0,1,0,10.26,31,4.26,4.26,0,0,0,6,26.73" transform="translate(-1.74 -3.1)"/><path class="cls-2" d="M27,47.53a3.26,3.26,0,1,1,3.26-3.26A3.26,3.26,0,0,1,27,47.53" transform="translate(-1.74 -3.1)"/><path class="cls-1" d="M27,42a2.26,2.26,0,1,1-2.26,2.26A2.26,2.26,0,0,1,27,42m0-2a4.26,4.26,0,1,0,4.26,4.26A4.26,4.26,0,0,0,27,40" transform="translate(-1.74 -3.1)"/></svg>