<svg id="Capa_1" data-name="Capa 1" xmlns="http://www.w3.org/2000/svg" viewBox="0 0 34.36 34.49"><defs><style>.cls-1{fill:none;stroke:#002152;stroke-miterlimit:10;stroke-width:2px;}.cls-2{fill:#002152;}</style></defs><title>icono_flechas</title><polyline class="cls-1" points="28.58 13.29 33.36 13.29 33.36 33.49 1 33.49 1 13.29 4.91 13.29"/><path class="cls-2" d="M23.75,26.89c-.81-4.74-3.45-11.3-11.31-16.34h4.37a1,1,0,0,0,0-2H10.52a1,1,0,0,0-1,1v6.22a1,1,0,0,0,2,0V12.33c14,9.1,10.16,23.17,10,23.79a1,1,0,0,0,.68,1.24,1.45,1.45,0,0,0,.28,0,1,1,0,0,0,1-.72,23.75,23.75,0,0,0,.33-9.79" transform="translate(-8 -8.55)"/><path class="cls-2" d="M27.13,26.89c.81-4.74,3.45-11.3,11.31-16.34H34.07a1,1,0,0,1,0-2h6.29a1,1,0,0,1,1,1v6.22a1,1,0,0,1-2,0V12.33c-14,9.1-10.17,23.17-10,23.79a1,1,0,0,1-.68,1.24,1.35,1.35,0,0,1-.28,0,1,1,0,0,1-1-.72,23.65,23.65,0,0,1-.32-9.79" transform="translate(-8 -8.55)"/></svg>