<svg id="Capa_1" data-name="Capa 1" xmlns="http://www.w3.org/2000/svg" viewBox="0 0 127.74 28.09"><defs><style>.cls-1{fill:#3b3c37;}</style></defs><title>logo_ria</title><path class="cls-1" d="M60.84,1.67H64a2.8,2.8,0,0,1,2,.72,2,2,0,0,1,.56,1.42v0a2.11,2.11,0,0,1-2,2.11l2.22,3h-1l-2.1-2.81H61.66V8.9h-.82Zm3,3.68c1.08,0,1.86-.55,1.86-1.48v0c0-.89-.69-1.43-1.85-1.43H61.66V5.35Z" transform="translate(-0.75 -1.47)"/><polygon class="cls-1" points="67.56 0.2 72.78 0.2 72.78 0.94 68.37 0.94 68.37 3.41 72.32 3.41 72.32 4.15 68.37 4.15 68.37 6.68 72.83 6.68 72.83 7.43 67.56 7.43 67.56 0.2"/><path class="cls-1" d="M75.23,1.66h2.51a3.6,3.6,0,0,1,3.84,3.6v0A3.62,3.62,0,0,1,77.74,8.9H75.23Zm2.51,6.48a2.79,2.79,0,0,0,3-2.84v0a2.81,2.81,0,0,0-3-2.86H76V8.14Z" transform="translate(-0.75 -1.47)"/><path class="cls-1" d="M86.4,1.66h2.51a3.61,3.61,0,0,1,3.85,3.6v0A3.62,3.62,0,0,1,88.91,8.9H86.4Zm2.51,6.48a2.8,2.8,0,0,0,3-2.84v0a2.82,2.82,0,0,0-3-2.86H87.22V8.14Z" transform="translate(-0.75 -1.47)"/><polygon class="cls-1" points="93.73 0.2 98.96 0.2 98.96 0.94 94.54 0.94 94.54 3.41 98.49 3.41 98.49 4.15 94.54 4.15 94.54 6.68 99.01 6.68 99.01 7.43 93.73 7.43 93.73 0.2"/><rect class="cls-1" x="60.16" y="10.52" width="0.82" height="7.23"/><polygon class="cls-1" points="63.09 10.52 63.86 10.52 68.41 16.32 68.41 10.52 69.21 10.52 69.21 17.76 68.56 17.76 63.89 11.83 63.89 17.76 63.09 17.76 63.09 10.52"/><polygon class="cls-1" points="71.25 10.52 72.02 10.52 76.57 16.32 76.57 10.52 77.37 10.52 77.37 17.76 76.72 17.76 72.05 11.83 72.05 17.76 71.25 17.76 71.25 10.52"/><path class="cls-1" d="M79.84,15.63v0a3.69,3.69,0,1,1,7.38,0v0a3.69,3.69,0,1,1-7.38,0m6.53,0v0a2.88,2.88,0,0,0-2.85-3,2.85,2.85,0,0,0-2.83,3v0a2.88,2.88,0,0,0,2.85,3,2.85,2.85,0,0,0,2.83-3" transform="translate(-0.75 -1.47)"/><polygon class="cls-1" points="87.15 10.52 88.06 10.52 90.63 16.75 93.21 10.52 94.09 10.52 90.98 17.81 90.26 17.81 87.15 10.52"/><path class="cls-1" d="M97.91,11.94h.76l3.3,7.29h-.88l-.85-1.92H96.31l-.86,1.92h-.84Zm2,4.64-1.64-3.69-1.65,3.69Z" transform="translate(-0.75 -1.47)"/><path class="cls-1" d="M102.65,15.63v0a3.64,3.64,0,0,1,3.66-3.74A3.79,3.79,0,0,1,109.13,13l-.56.6a3.14,3.14,0,0,0-2.27-1,2.84,2.84,0,0,0-2.8,3v0a2.85,2.85,0,0,0,2.8,3,3.14,3.14,0,0,0,2.33-1.05l.54.53a3.79,3.79,0,0,1-2.89,1.27,3.61,3.61,0,0,1-3.63-3.72" transform="translate(-0.75 -1.47)"/><rect class="cls-1" x="109.91" y="10.52" width="0.82" height="7.23"/><path class="cls-1" d="M113.28,15.63v0a3.66,3.66,0,0,1,3.7-3.74,3.62,3.62,0,0,1,3.67,3.72v0a3.69,3.69,0,1,1-7.37,0m6.53,0v0a2.88,2.88,0,0,0-2.86-3,2.85,2.85,0,0,0-2.83,3v0a2.88,2.88,0,0,0,2.86,3,2.85,2.85,0,0,0,2.83-3m-2.14-5.71.81.37-1.18,1h-.67Z" transform="translate(-0.75 -1.47)"/><polygon class="cls-1" points="121.63 10.52 122.39 10.52 126.94 16.32 126.94 10.52 127.74 10.52 127.74 17.76 127.09 17.76 122.42 11.83 122.42 17.76 121.63 17.76 121.63 10.52"/><path class="cls-1" d="M63.51,22.27h.77l3.29,7.28H66.7l-.85-1.91H61.91l-.85,1.91h-.84Zm2,4.64-1.64-3.69-1.66,3.69Z" transform="translate(-0.75 -1.47)"/><path class="cls-1" d="M69,22.32h3.08A2.69,2.69,0,0,1,74,23a1.62,1.62,0,0,1,.46,1.16v0a1.74,1.74,0,0,1-1.14,1.67,1.84,1.84,0,0,1,1.55,1.75v0c0,1.24-1,2-2.63,2H69Zm2.94,3.23c1,0,1.67-.45,1.67-1.3v0c0-.71-.57-1.17-1.61-1.17H69.8v2.49Zm.29,3.27c1.1,0,1.78-.48,1.78-1.29v0c0-.79-.66-1.24-1.92-1.24H69.8v2.55Z" transform="translate(-0.75 -1.47)"/><rect class="cls-1" x="75.78" y="20.85" width="0.82" height="7.23"/><polygon class="cls-1" points="78.71 20.85 83.94 20.85 83.94 21.6 79.53 21.6 79.53 24.07 83.47 24.07 83.47 24.81 79.53 24.81 79.53 27.34 83.99 27.34 83.99 28.09 78.71 28.09 78.71 20.85"/><path class="cls-1" d="M86.38,22.32h3.11a2.85,2.85,0,0,1,2.06.73,2,2,0,0,1,.56,1.42v0a2.12,2.12,0,0,1-2,2.11l2.22,2.95h-1l-2.1-2.81H87.2v2.81h-.82Zm3,3.69c1.08,0,1.86-.56,1.86-1.49v0c0-.89-.68-1.42-1.85-1.42H87.2V26Z" transform="translate(-0.75 -1.47)"/><polygon class="cls-1" points="94.94 21.61 92.51 21.61 92.51 20.85 98.19 20.85 98.19 21.61 95.76 21.61 95.76 28.09 94.94 28.09 94.94 21.61"/><path class="cls-1" d="M102.22,22.27H103l3.3,7.28h-.88l-.85-1.91h-3.94l-.85,1.91h-.84Zm2,4.64-1.64-3.69-1.66,3.69Z" transform="translate(-0.75 -1.47)"/><rect class="cls-1" x="25.01" y="0.2" width="2.07" height="27.89"/><path class="cls-1" d="M44.93,1.47h-2L30,29.55H32.1l19.71-8.41.28.61h0l.79,1.74h0l2.75,6.05h2.27Zm-8.69,19,9.95-6.9,5.32,6.93H36.22Zm10.28-7.13,1.32-.92,2.6,5.73.33.71ZM43.89,3.74l3.78,8.32-1.4,1-4.15-5.4Zm-2,4.3,4,5.22-9.37,6.49.8-1.74ZM35,23.14h0l.63-1.38h0l.38-.83H51.3L32.35,29Z" transform="translate(-0.75 -1.47)"/><path class="cls-1" d="M20.83,29.55h2.63l-9.2-11.91c4.7-.63,8.16-3.3,8.16-8V9.6a7.31,7.31,0,0,0-2.11-5.18c-1.67-1.68-4.42-2.75-7.85-2.75H.75V29.55H2.82l9.37-11.21ZM13.58,16H2.83l17.51-6c-.13,3.4-2.7,5.61-6.76,6M2.82,3.81l16.93,6L2.82,15.6V3.81ZM20.34,9.54l-16.95-6h9c5,0,7.93,2.3,8,6m-17.52,12V16.43H13.25L11.94,18,2.82,28.92Z" transform="translate(-0.75 -1.47)"/></svg>